<mxfile host="app.diagrams.net" modified="2021-08-05T08:34:12.887Z" agent="5.0 (Windows NT 10.0; Win64; x64) AppleWebKit/537.36 (KHTML, like Gecko) Chrome/92.0.4515.107 Safari/537.36" etag="vCHsubE0wQek_JtfR4PD" version="14.9.2" type="github">
  <diagram id="PGe-BacURcMwnDzJO80s" name="Page-1">
    <mxGraphModel dx="868" dy="393" grid="1" gridSize="10" guides="1" tooltips="1" connect="1" arrows="1" fold="1" page="1" pageScale="1" pageWidth="827" pageHeight="1169" math="0" shadow="0">
      <root>
        <mxCell id="0" />
        <mxCell id="1" parent="0" />
        <mxCell id="vvdOY0QT1Kw_dqCe4-fJ-51" style="edgeStyle=orthogonalEdgeStyle;rounded=0;orthogonalLoop=1;jettySize=auto;html=1;exitX=0.5;exitY=1;exitDx=0;exitDy=0;entryX=0.5;entryY=0;entryDx=0;entryDy=0;" edge="1" parent="1" source="vvdOY0QT1Kw_dqCe4-fJ-2" target="vvdOY0QT1Kw_dqCe4-fJ-3">
          <mxGeometry relative="1" as="geometry" />
        </mxCell>
        <mxCell id="vvdOY0QT1Kw_dqCe4-fJ-2" value="&lt;h2&gt;Bắt đầu&lt;/h2&gt;" style="ellipse;whiteSpace=wrap;html=1;" vertex="1" parent="1">
          <mxGeometry x="20" y="40" width="120" height="80" as="geometry" />
        </mxCell>
        <mxCell id="vvdOY0QT1Kw_dqCe4-fJ-52" style="edgeStyle=orthogonalEdgeStyle;rounded=0;orthogonalLoop=1;jettySize=auto;html=1;exitX=0.5;exitY=1;exitDx=0;exitDy=0;entryX=0.5;entryY=0;entryDx=0;entryDy=0;" edge="1" parent="1" source="vvdOY0QT1Kw_dqCe4-fJ-3" target="vvdOY0QT1Kw_dqCe4-fJ-8">
          <mxGeometry relative="1" as="geometry" />
        </mxCell>
        <mxCell id="vvdOY0QT1Kw_dqCe4-fJ-3" value="&lt;h3&gt;Cấu hình LCD&lt;/h3&gt;" style="rounded=1;whiteSpace=wrap;html=1;" vertex="1" parent="1">
          <mxGeometry x="20" y="160" width="120" height="60" as="geometry" />
        </mxCell>
        <mxCell id="vvdOY0QT1Kw_dqCe4-fJ-13" style="edgeStyle=orthogonalEdgeStyle;rounded=0;orthogonalLoop=1;jettySize=auto;html=1;exitX=0.5;exitY=1;exitDx=0;exitDy=0;entryX=0.5;entryY=0;entryDx=0;entryDy=0;" edge="1" parent="1" source="vvdOY0QT1Kw_dqCe4-fJ-4" target="vvdOY0QT1Kw_dqCe4-fJ-10">
          <mxGeometry relative="1" as="geometry" />
        </mxCell>
        <mxCell id="vvdOY0QT1Kw_dqCe4-fJ-4" value="&lt;h3&gt;Cho phép ngắt Timer&lt;/h3&gt;" style="rounded=1;whiteSpace=wrap;html=1;" vertex="1" parent="1">
          <mxGeometry x="200" y="160" width="120" height="60" as="geometry" />
        </mxCell>
        <mxCell id="vvdOY0QT1Kw_dqCe4-fJ-12" style="edgeStyle=orthogonalEdgeStyle;rounded=0;orthogonalLoop=1;jettySize=auto;html=1;exitX=0.5;exitY=1;exitDx=0;exitDy=0;entryX=0.5;entryY=0;entryDx=0;entryDy=0;" edge="1" parent="1" source="vvdOY0QT1Kw_dqCe4-fJ-5" target="vvdOY0QT1Kw_dqCe4-fJ-4">
          <mxGeometry relative="1" as="geometry" />
        </mxCell>
        <mxCell id="vvdOY0QT1Kw_dqCe4-fJ-5" value="&lt;h2&gt;Ngắt INT&lt;/h2&gt;" style="ellipse;whiteSpace=wrap;html=1;" vertex="1" parent="1">
          <mxGeometry x="200" y="40" width="120" height="80" as="geometry" />
        </mxCell>
        <mxCell id="vvdOY0QT1Kw_dqCe4-fJ-54" style="edgeStyle=orthogonalEdgeStyle;rounded=0;orthogonalLoop=1;jettySize=auto;html=1;exitX=0.5;exitY=1;exitDx=0;exitDy=0;entryX=0.5;entryY=0;entryDx=0;entryDy=0;" edge="1" parent="1" source="vvdOY0QT1Kw_dqCe4-fJ-7" target="vvdOY0QT1Kw_dqCe4-fJ-9">
          <mxGeometry relative="1" as="geometry" />
        </mxCell>
        <mxCell id="vvdOY0QT1Kw_dqCe4-fJ-7" value="&lt;h3&gt;Cấu hình ngắt INT&lt;/h3&gt;" style="rounded=1;whiteSpace=wrap;html=1;" vertex="1" parent="1">
          <mxGeometry x="20" y="360" width="120" height="60" as="geometry" />
        </mxCell>
        <mxCell id="vvdOY0QT1Kw_dqCe4-fJ-53" style="edgeStyle=orthogonalEdgeStyle;rounded=0;orthogonalLoop=1;jettySize=auto;html=1;exitX=0.5;exitY=1;exitDx=0;exitDy=0;entryX=0.5;entryY=0;entryDx=0;entryDy=0;" edge="1" parent="1" source="vvdOY0QT1Kw_dqCe4-fJ-8" target="vvdOY0QT1Kw_dqCe4-fJ-7">
          <mxGeometry relative="1" as="geometry" />
        </mxCell>
        <mxCell id="vvdOY0QT1Kw_dqCe4-fJ-8" value="&lt;h3&gt;Cấu hình ngắt Timer&lt;br&gt;Bộ đếm xung&lt;/h3&gt;" style="rounded=1;whiteSpace=wrap;html=1;" vertex="1" parent="1">
          <mxGeometry x="20" y="260" width="120" height="60" as="geometry" />
        </mxCell>
        <mxCell id="vvdOY0QT1Kw_dqCe4-fJ-56" style="edgeStyle=orthogonalEdgeStyle;rounded=0;orthogonalLoop=1;jettySize=auto;html=1;exitX=0.5;exitY=1;exitDx=0;exitDy=0;entryX=0.5;entryY=0;entryDx=0;entryDy=0;" edge="1" parent="1" source="vvdOY0QT1Kw_dqCe4-fJ-9" target="vvdOY0QT1Kw_dqCe4-fJ-55">
          <mxGeometry relative="1" as="geometry" />
        </mxCell>
        <mxCell id="vvdOY0QT1Kw_dqCe4-fJ-9" value="&lt;h3&gt;Cho phép ngắt&lt;/h3&gt;" style="rounded=1;whiteSpace=wrap;html=1;" vertex="1" parent="1">
          <mxGeometry x="20" y="460" width="120" height="60" as="geometry" />
        </mxCell>
        <mxCell id="vvdOY0QT1Kw_dqCe4-fJ-14" style="edgeStyle=orthogonalEdgeStyle;rounded=0;orthogonalLoop=1;jettySize=auto;html=1;exitX=0.5;exitY=1;exitDx=0;exitDy=0;" edge="1" parent="1" source="vvdOY0QT1Kw_dqCe4-fJ-10" target="vvdOY0QT1Kw_dqCe4-fJ-11">
          <mxGeometry relative="1" as="geometry" />
        </mxCell>
        <mxCell id="vvdOY0QT1Kw_dqCe4-fJ-10" value="&lt;h3&gt;Nạp giá trị Timer&lt;/h3&gt;" style="rounded=1;whiteSpace=wrap;html=1;" vertex="1" parent="1">
          <mxGeometry x="200" y="260" width="120" height="60" as="geometry" />
        </mxCell>
        <mxCell id="vvdOY0QT1Kw_dqCe4-fJ-11" value="&lt;h3&gt;Xoá cờ ngắt INT&lt;/h3&gt;" style="rounded=1;whiteSpace=wrap;html=1;" vertex="1" parent="1">
          <mxGeometry x="200" y="360" width="120" height="60" as="geometry" />
        </mxCell>
        <mxCell id="vvdOY0QT1Kw_dqCe4-fJ-31" style="edgeStyle=orthogonalEdgeStyle;rounded=0;orthogonalLoop=1;jettySize=auto;html=1;exitX=0.5;exitY=1;exitDx=0;exitDy=0;" edge="1" parent="1" source="vvdOY0QT1Kw_dqCe4-fJ-15" target="vvdOY0QT1Kw_dqCe4-fJ-16">
          <mxGeometry relative="1" as="geometry" />
        </mxCell>
        <mxCell id="vvdOY0QT1Kw_dqCe4-fJ-15" value="&lt;h2&gt;Ngắt Timer&lt;/h2&gt;" style="ellipse;whiteSpace=wrap;html=1;" vertex="1" parent="1">
          <mxGeometry x="350" y="40" width="120" height="80" as="geometry" />
        </mxCell>
        <mxCell id="vvdOY0QT1Kw_dqCe4-fJ-36" style="edgeStyle=orthogonalEdgeStyle;rounded=0;orthogonalLoop=1;jettySize=auto;html=1;exitX=0.5;exitY=1;exitDx=0;exitDy=0;entryX=0.5;entryY=0;entryDx=0;entryDy=0;" edge="1" parent="1" source="vvdOY0QT1Kw_dqCe4-fJ-16" target="vvdOY0QT1Kw_dqCe4-fJ-17">
          <mxGeometry relative="1" as="geometry" />
        </mxCell>
        <mxCell id="vvdOY0QT1Kw_dqCe4-fJ-16" value="&lt;h3&gt;Xoá cờ ngắt Timer&lt;/h3&gt;" style="rounded=1;whiteSpace=wrap;html=1;" vertex="1" parent="1">
          <mxGeometry x="350" y="160" width="120" height="60" as="geometry" />
        </mxCell>
        <mxCell id="vvdOY0QT1Kw_dqCe4-fJ-37" value="&lt;h3&gt;Yes&lt;/h3&gt;" style="edgeStyle=orthogonalEdgeStyle;rounded=0;orthogonalLoop=1;jettySize=auto;html=1;exitX=0.5;exitY=1;exitDx=0;exitDy=0;entryX=0.5;entryY=0;entryDx=0;entryDy=0;" edge="1" parent="1" source="vvdOY0QT1Kw_dqCe4-fJ-17" target="vvdOY0QT1Kw_dqCe4-fJ-20">
          <mxGeometry y="20" relative="1" as="geometry">
            <mxPoint as="offset" />
          </mxGeometry>
        </mxCell>
        <mxCell id="vvdOY0QT1Kw_dqCe4-fJ-38" value="&lt;h3&gt;No&lt;/h3&gt;" style="edgeStyle=orthogonalEdgeStyle;rounded=0;orthogonalLoop=1;jettySize=auto;html=1;exitX=1;exitY=0.5;exitDx=0;exitDy=0;entryX=0;entryY=0.5;entryDx=0;entryDy=0;" edge="1" parent="1" source="vvdOY0QT1Kw_dqCe4-fJ-17" target="vvdOY0QT1Kw_dqCe4-fJ-18">
          <mxGeometry y="10" relative="1" as="geometry">
            <mxPoint as="offset" />
          </mxGeometry>
        </mxCell>
        <mxCell id="vvdOY0QT1Kw_dqCe4-fJ-17" value="&lt;h2&gt;A=1&lt;/h2&gt;" style="rhombus;whiteSpace=wrap;html=1;" vertex="1" parent="1">
          <mxGeometry x="352" y="260" width="116" height="60" as="geometry" />
        </mxCell>
        <mxCell id="vvdOY0QT1Kw_dqCe4-fJ-40" value="&lt;h3&gt;Yes&lt;/h3&gt;" style="edgeStyle=orthogonalEdgeStyle;rounded=0;orthogonalLoop=1;jettySize=auto;html=1;exitX=0.5;exitY=1;exitDx=0;exitDy=0;entryX=0.5;entryY=0;entryDx=0;entryDy=0;" edge="1" parent="1" source="vvdOY0QT1Kw_dqCe4-fJ-18" target="vvdOY0QT1Kw_dqCe4-fJ-21">
          <mxGeometry y="13" relative="1" as="geometry">
            <mxPoint as="offset" />
          </mxGeometry>
        </mxCell>
        <mxCell id="vvdOY0QT1Kw_dqCe4-fJ-18" value="&lt;h2&gt;B=1&lt;/h2&gt;" style="rhombus;whiteSpace=wrap;html=1;" vertex="1" parent="1">
          <mxGeometry x="532" y="260" width="110" height="60" as="geometry" />
        </mxCell>
        <mxCell id="vvdOY0QT1Kw_dqCe4-fJ-44" style="edgeStyle=orthogonalEdgeStyle;rounded=0;orthogonalLoop=1;jettySize=auto;html=1;exitX=0.5;exitY=1;exitDx=0;exitDy=0;entryX=0.5;entryY=0;entryDx=0;entryDy=0;" edge="1" parent="1" source="vvdOY0QT1Kw_dqCe4-fJ-20" target="vvdOY0QT1Kw_dqCe4-fJ-42">
          <mxGeometry relative="1" as="geometry" />
        </mxCell>
        <mxCell id="vvdOY0QT1Kw_dqCe4-fJ-20" value="&lt;h3&gt;Xuất xung SCR1&lt;/h3&gt;" style="rounded=1;whiteSpace=wrap;html=1;" vertex="1" parent="1">
          <mxGeometry x="350" y="360" width="120" height="60" as="geometry" />
        </mxCell>
        <mxCell id="vvdOY0QT1Kw_dqCe4-fJ-45" style="edgeStyle=orthogonalEdgeStyle;rounded=0;orthogonalLoop=1;jettySize=auto;html=1;exitX=0.5;exitY=1;exitDx=0;exitDy=0;" edge="1" parent="1" source="vvdOY0QT1Kw_dqCe4-fJ-21">
          <mxGeometry relative="1" as="geometry">
            <mxPoint x="410" y="460" as="targetPoint" />
          </mxGeometry>
        </mxCell>
        <mxCell id="vvdOY0QT1Kw_dqCe4-fJ-21" value="&lt;h3&gt;Xuất xung SCR2&lt;/h3&gt;" style="rounded=1;whiteSpace=wrap;html=1;" vertex="1" parent="1">
          <mxGeometry x="527" y="360" width="120" height="60" as="geometry" />
        </mxCell>
        <mxCell id="vvdOY0QT1Kw_dqCe4-fJ-46" style="edgeStyle=orthogonalEdgeStyle;rounded=0;orthogonalLoop=1;jettySize=auto;html=1;exitX=1;exitY=0.5;exitDx=0;exitDy=0;entryX=0;entryY=0.5;entryDx=0;entryDy=0;" edge="1" parent="1" source="vvdOY0QT1Kw_dqCe4-fJ-26" target="vvdOY0QT1Kw_dqCe4-fJ-27">
          <mxGeometry relative="1" as="geometry" />
        </mxCell>
        <mxCell id="vvdOY0QT1Kw_dqCe4-fJ-26" value="&lt;h3&gt;Đọc số xung Encoder&lt;/h3&gt;" style="rounded=1;whiteSpace=wrap;html=1;" vertex="1" parent="1">
          <mxGeometry x="520" y="470" width="120" height="60" as="geometry" />
        </mxCell>
        <mxCell id="vvdOY0QT1Kw_dqCe4-fJ-34" style="edgeStyle=orthogonalEdgeStyle;rounded=0;orthogonalLoop=1;jettySize=auto;html=1;exitX=0.5;exitY=1;exitDx=0;exitDy=0;entryX=0.5;entryY=0;entryDx=0;entryDy=0;" edge="1" parent="1" source="vvdOY0QT1Kw_dqCe4-fJ-27" target="vvdOY0QT1Kw_dqCe4-fJ-28">
          <mxGeometry relative="1" as="geometry" />
        </mxCell>
        <mxCell id="vvdOY0QT1Kw_dqCe4-fJ-27" value="&lt;h3&gt;Tính vận tốc&lt;/h3&gt;" style="rounded=1;whiteSpace=wrap;html=1;" vertex="1" parent="1">
          <mxGeometry x="690" y="470" width="120" height="60" as="geometry" />
        </mxCell>
        <mxCell id="vvdOY0QT1Kw_dqCe4-fJ-50" style="edgeStyle=orthogonalEdgeStyle;rounded=0;orthogonalLoop=1;jettySize=auto;html=1;exitX=0;exitY=0.5;exitDx=0;exitDy=0;entryX=1;entryY=0.5;entryDx=0;entryDy=0;" edge="1" parent="1" source="vvdOY0QT1Kw_dqCe4-fJ-28" target="vvdOY0QT1Kw_dqCe4-fJ-48">
          <mxGeometry relative="1" as="geometry" />
        </mxCell>
        <mxCell id="vvdOY0QT1Kw_dqCe4-fJ-28" value="&lt;h3&gt;Điều chỉnh góc kích&lt;/h3&gt;" style="rounded=1;whiteSpace=wrap;html=1;" vertex="1" parent="1">
          <mxGeometry x="690" y="575" width="120" height="60" as="geometry" />
        </mxCell>
        <mxCell id="vvdOY0QT1Kw_dqCe4-fJ-43" value="&lt;h3&gt;Yes&lt;/h3&gt;" style="edgeStyle=orthogonalEdgeStyle;rounded=0;orthogonalLoop=1;jettySize=auto;html=1;exitX=1;exitY=0.5;exitDx=0;exitDy=0;entryX=0;entryY=0.5;entryDx=0;entryDy=0;" edge="1" parent="1" source="vvdOY0QT1Kw_dqCe4-fJ-42" target="vvdOY0QT1Kw_dqCe4-fJ-26">
          <mxGeometry x="-0.0909" y="10" relative="1" as="geometry">
            <mxPoint as="offset" />
          </mxGeometry>
        </mxCell>
        <mxCell id="vvdOY0QT1Kw_dqCe4-fJ-49" value="&lt;h3&gt;No&lt;/h3&gt;" style="edgeStyle=orthogonalEdgeStyle;rounded=0;orthogonalLoop=1;jettySize=auto;html=1;exitX=0.5;exitY=1;exitDx=0;exitDy=0;entryX=0.5;entryY=0;entryDx=0;entryDy=0;" edge="1" parent="1" source="vvdOY0QT1Kw_dqCe4-fJ-42" target="vvdOY0QT1Kw_dqCe4-fJ-48">
          <mxGeometry x="0.1429" y="10" relative="1" as="geometry">
            <mxPoint as="offset" />
          </mxGeometry>
        </mxCell>
        <mxCell id="vvdOY0QT1Kw_dqCe4-fJ-42" value="&lt;h3&gt;Ngắt 10 lần (0,1s)&lt;/h3&gt;" style="rhombus;whiteSpace=wrap;html=1;" vertex="1" parent="1">
          <mxGeometry x="355" y="460" width="110" height="80" as="geometry" />
        </mxCell>
        <mxCell id="vvdOY0QT1Kw_dqCe4-fJ-48" value="&lt;h3&gt;Kết thúc ngắt&lt;/h3&gt;" style="rounded=1;whiteSpace=wrap;html=1;" vertex="1" parent="1">
          <mxGeometry x="350" y="575" width="120" height="60" as="geometry" />
        </mxCell>
        <mxCell id="vvdOY0QT1Kw_dqCe4-fJ-58" style="edgeStyle=orthogonalEdgeStyle;rounded=0;orthogonalLoop=1;jettySize=auto;html=1;exitX=0.5;exitY=1;exitDx=0;exitDy=0;" edge="1" parent="1" source="vvdOY0QT1Kw_dqCe4-fJ-55">
          <mxGeometry relative="1" as="geometry">
            <mxPoint x="80" y="540" as="targetPoint" />
            <Array as="points">
              <mxPoint x="80" y="640" />
              <mxPoint x="170" y="640" />
              <mxPoint x="170" y="540" />
            </Array>
          </mxGeometry>
        </mxCell>
        <mxCell id="vvdOY0QT1Kw_dqCe4-fJ-55" value="&lt;h3&gt;Vòng lặp&lt;/h3&gt;" style="rounded=1;whiteSpace=wrap;html=1;" vertex="1" parent="1">
          <mxGeometry x="20" y="560" width="120" height="60" as="geometry" />
        </mxCell>
      </root>
    </mxGraphModel>
  </diagram>
</mxfile>
